<svg xmlns="http://www.w3.org/2000/svg" viewBox="0 0 1024 128">
	<style>
			g path {
				fill: black;
			}
			@media (prefers-color-scheme: dark) {
				g path {
					fill: white;
				}
			}
	</style>
	<g>
		<path d="M112,85.41c-5.4,23.72-24,37.11-51.2,37.11-33.12,0-56.61-20.2-56.61-53.32,0-32.89,24-56.61,55.9-56.61,34.53,0,52.62,23.72,52.62,52.15V75.07H37.52C38.46,88.93,48.8,96.92,62,96.92c11.75,0,19-4.47,22.79-14.1ZM80,57c-.71-10.34-7.28-19.74-20.2-19.74C46.21,37.25,39.87,46,38,57Z"/>
		<path d="M142.05,119.7,102.35,15.41h35.71l24.66,68.12h.94l24.66-68.12h33.12L181.75,119.7Z"/>
		<path d="M318.45,85.41c-5.4,23.72-24,37.11-51.2,37.11-33.12,0-56.61-20.2-56.61-53.32,0-32.89,24-56.61,55.9-56.61,34.53,0,52.62,23.72,52.62,52.15V75.07H244c.94,13.86,11.28,21.85,24.43,21.85,11.74,0,19-4.47,22.78-14.1ZM286.51,57c-.71-10.34-7.28-19.74-20.2-19.74-13.63,0-20,8.7-21.85,19.74Z"/>
		<path d="M355.8,119.7H322V15.41H355.8V31.62c5.63-11.51,18.32-19,34.06-19,28.18,0,37.58,19.5,37.58,41.81v65.3H393.61V62.62c0-15-4.93-23.25-17.38-23.25-13.62,0-20.43,10.8-20.43,27.25Z"/>
		<path d="M569.31,12.59c28.42,0,37.11,19.73,37.11,41.81v65.3H572.6V62.62c0-15-3.76-23.25-16-23.25-13.16,0-19,10.8-19,27.25V119.7H503.54V62.62c0-15-3.76-23.25-16.21-23.25-12.92,0-19,10.8-19,27.25V119.7H434.48V15.41h33.83V31.62c5.63-11.51,17.14-19,32.88-19,18.32,0,28.42,8.46,32.89,20.91C539.48,21.75,552.16,12.59,569.31,12.59Z"/>
		<path d="M663.73,122.52c-33.35,0-56.14-22.55-56.14-55,0-32.18,22.79-55,56.14-55s56.38,22.79,56.38,55C720.11,100,697.09,122.52,663.73,122.52Zm0-25.6c14.8,0,22.08-12,22.08-29.36s-7.28-29.37-22.08-29.37c-15,0-21.84,12-21.84,29.37S648.7,96.92,663.73,96.92Z"/>
		<path d="M797.62,48.53c-5.4-3.05-10.57-4.23-17.85-4.23-14.1,0-23.49,8-23.49,26.07V119.7H722.45V15.41h33.83v19c4-11.75,14.8-21.85,28.89-21.85,6.34,0,11.75,1.88,14.56,4.23Z"/>
		<path d="M898.15,85.41c-5.4,23.72-24,37.11-51.2,37.11-33.12,0-56.61-20.2-56.61-53.32,0-32.89,24-56.61,55.9-56.61,34.53,0,52.62,23.72,52.62,52.15V75.07H823.69c.94,13.86,11.28,21.85,24.43,21.85,11.75,0,19-4.47,22.79-14.1ZM866.21,57c-.71-10.34-7.28-19.74-20.2-19.74-13.63,0-20,8.7-21.85,19.74Z"/>
	</g>
	<path d="M1004.35,53.56c6.81,0,18.65,5.78,18.65,12.74,0,7.17-11.84,12.74-18.65,12.74H981.14l-20,35a6.36,6.36,0,0,1-5.53,3.2H944.41a3.19,3.19,0,0,1-3.07-4.06L951.1,79H930.63L922,90.51a3.19,3.19,0,0,1-2.55,1.27h-8.36A2.77,2.77,0,0,1,908.34,89a3.47,3.47,0,0,1,.1-.78l6.27-21.92-6.27-21.91a2.61,2.61,0,0,1-.1-.78,2.78,2.78,0,0,1,2.78-2.79h8.36A3.2,3.2,0,0,1,922,42.1l8.6,11.46h20.49L941.36,19.4a3.17,3.17,0,0,1,3-4.06H955.6a6.41,6.41,0,0,1,5.53,3.21l20,35Z" style="fill:#ffab00"/>
</svg>